<?xml version="1.0" encoding="UTF-8"?>
<svg version="1.1" xmlns="http://www.w3.org/2000/svg" width="2000" height="1500">
<path d="M0 0 C660 0 1320 0 2000 0 C2000 495 2000 990 2000 1500 C1340 1500 680 1500 0 1500 C0 1005 0 510 0 0 Z " fill="#000000" transform="translate(0,0)"/>
<path d="M0 0 C40.92 0 81.84 0 124 0 C129.28 9.24 134.56 18.48 140 28 C144.89242604 36.30859877 144.89242604 36.30859877 149.8046875 44.60546875 C153.14909487 50.24080545 156.45242741 55.89966259 159.75 61.5625 C164.98494543 70.5505529 170.23688321 79.52842965 175.5 88.5 C180.67784549 97.3268463 185.84731296 106.15843213 191 115 C196.09189018 123.73638038 201.19756506 132.4645991 206.3125 141.1875 C206.66744537 141.79282562 207.02239075 142.39815125 207.38809204 143.02182007 C209.9250231 147.34809802 212.46245629 151.67408137 215 156 C217.89617437 160.93730005 220.79213294 165.87472648 223.6875 170.8125 C224.04268707 171.41822845 224.39787415 172.02395691 224.76382446 172.64804077 C230.08621275 181.72567895 235.39371102 190.81191822 240.69213867 199.90356445 C245.28203169 207.77652865 249.88905418 215.63935677 254.5 223.5 C259.67774282 232.32690681 264.84731271 241.15843169 270 250 C275.09189018 258.73638038 280.19756506 267.4645991 285.3125 276.1875 C285.66744537 276.79282562 286.02239075 277.39815125 286.38809204 278.02182007 C288.9250231 282.34809802 291.46245629 286.67408137 294 291 C296.89617437 295.93730005 299.79213294 300.87472648 302.6875 305.8125 C303.22028061 306.72109268 303.22028061 306.72109268 303.76382446 307.64804077 C309.07890604 316.71321693 314.37949378 325.78676466 319.67016602 334.86621094 C322.94205159 340.4789233 326.22123203 346.0872902 329.5078125 351.69140625 C329.89177185 352.34611908 330.2757312 353.00083191 330.67132568 353.67538452 C332.55230905 356.88231429 334.43397589 360.08884128 336.31640625 363.29492188 C337.00521114 364.46874835 337.69401335 365.6425764 338.3828125 366.81640625 C338.98496582 367.84193604 339.58711914 368.86746582 340.20751953 369.92407227 C342.15809082 373.2712866 344.07791317 376.63634805 346 380 C346.33 254.93 346.66 129.86 347 1 C384.95 1 422.9 1 462 1 C462 191.74 462 382.48 462 579 C421.08 579 380.16 579 338 579 C333.05 570.42 328.1 561.84 323 553 C320.3441624 548.49255731 317.68403226 543.99031242 315 539.5 C309.70314602 530.6006334 304.47380833 521.66615088 299.3125 512.6875 C294.28139572 503.93556996 289.19931375 495.21735177 284.05175781 486.53344727 C279.53348554 478.91006155 275.04290401 471.27067635 270.5625 463.625 C270.20013245 463.00668304 269.83776489 462.38836609 269.4644165 461.75131226 C264.06506264 452.53689376 258.68017975 443.31409614 253.30224609 434.0871582 C246.61327496 422.61451895 239.89241067 411.1605909 233.17333984 399.70556641 C229.96765731 394.24015517 226.76362141 388.77377869 223.55947876 383.3074646 C221.78972162 380.28826922 220.01985522 377.26913789 218.25 374.25 C217.54166614 373.04166697 216.83333281 371.83333364 216.125 370.625 C215.774375 370.026875 215.42375 369.42875 215.0625 368.8125 C211.87499997 363.37499994 211.87499997 363.37499994 210.81254578 361.56257629 C210.10406194 360.35398742 209.39557602 359.14539978 208.68708801 357.93681335 C206.91854021 354.91989977 205.15002846 351.90296506 203.3815918 348.88598633 C200.16685549 343.40168127 196.95183523 337.91754356 193.73550415 332.43417358 C186.24262006 319.65986363 178.75877459 306.88046149 171.30126953 294.08544922 C166.05911878 285.09443861 160.79814792 276.11450961 155.53173828 267.13769531 C154.80891605 265.90560085 154.08609705 264.67350449 153.36328125 263.44140625 C153.0036731 262.82844696 152.64406494 262.21548767 152.27355957 261.58395386 C149.73440971 257.25488937 147.20029038 252.92290517 144.66796875 248.58984375 C143.23733558 246.14302058 141.80626707 243.69645241 140.375 241.25 C140.02674164 240.65452362 139.67848328 240.05904724 139.31967163 239.44552612 C135.4605585 232.85034476 131.57632066 226.27168831 127.6328125 219.7265625 C127.28197601 219.1440271 126.93113953 218.5614917 126.56967163 217.96130371 C124.90343387 215.19676083 123.23263574 212.43510151 121.55615234 209.67675781 C120.97043457 208.70834961 120.3847168 207.73994141 119.78125 206.7421875 C119.0087793 205.47157471 119.0087793 205.47157471 118.22070312 204.17529297 C117 202 117 202 116 199 C115.67 324.4 115.34 449.8 115 579 C77.05 579 39.1 579 0 579 C0 387.93 0 196.86 0 0 Z " fill="#FEFEFE" transform="translate(769,460)"/>
<path d="M0 0 C308.88 0 617.76 0 936 0 C936 51.48 936 102.96 936 156 C918.51 156 901.02 156 883 156 C883 121.68 883 87.36 883 52 C608.77 52 334.54 52 52 52 C52 326.23 52 600.46 52 883 C326.23 883 600.46 883 883 883 C883 848.68 883 814.36 883 779 C900.49 779 917.98 779 936 779 C936 830.48 936 881.96 936 935 C627.12 935 318.24 935 0 935 C0 626.45 0 317.9 0 0 Z " fill="#FDFDFD" transform="translate(523,282)"/>
</svg>
